<svg width="256" height="256" viewBox="0 0 256 256" fill="none" xmlns="http://www.w3.org/2000/svg">
<path d="M90.6668 202.667C87.5023 202.667 84.4089 203.605 81.7777 205.363C79.1465 207.121 77.0958 209.62 75.8848 212.544C74.6738 215.467 74.3569 218.684 74.9743 221.788C75.5916 224.892 77.1155 227.743 79.3531 229.98C81.5908 232.218 84.4417 233.742 87.5454 234.359C90.6491 234.977 93.8661 234.66 96.7898 233.449C99.7134 232.238 102.212 230.187 103.97 227.556C105.728 224.925 106.667 221.831 106.667 218.667C106.667 214.423 104.981 210.354 101.981 207.353C98.98 204.352 94.9103 202.667 90.6668 202.667ZM202.667 170.667H74.6668C71.8379 170.667 69.1247 169.543 67.1244 167.542C65.124 165.542 64.0002 162.829 64.0002 160C64.0002 157.171 65.124 154.458 67.1244 152.458C69.1247 150.457 71.8379 149.333 74.6668 149.333H165.24C172.188 149.311 178.942 147.037 184.49 142.853C190.038 138.669 194.08 132.8 196.011 126.125L212.922 66.9323C213.376 65.3448 213.455 63.6736 213.153 62.0504C212.851 60.4272 212.176 58.8962 211.182 57.5779C210.188 56.2597 208.902 55.1902 207.424 54.4537C205.946 53.7171 204.318 53.3336 202.667 53.3333H71.8836C69.6754 47.1185 65.6049 41.7356 60.2266 37.918C54.8482 34.1005 48.4237 32.0339 41.8283 32H32.0002C29.1712 32 26.4581 33.1238 24.4577 35.1242C22.4573 37.1246 21.3335 39.8377 21.3335 42.6667C21.3335 45.4956 22.4573 48.2087 24.4577 50.2091C26.4581 52.2095 29.1712 53.3333 32.0002 53.3333H41.8283C44.1439 53.3414 46.3945 54.0994 48.2432 55.4937C50.0919 56.888 51.4393 58.8436 52.0835 61.0677L53.7424 66.8783L53.7449 66.9323L71.245 128.182C63.1016 129.058 55.6041 133.023 50.2963 139.261C44.9885 145.499 42.2744 153.534 42.713 161.713C43.1515 169.891 46.7092 177.59 52.6536 183.225C58.598 188.859 66.4765 192 74.6668 192H202.667C205.496 192 208.209 190.876 210.209 188.876C212.21 186.875 213.334 184.162 213.334 181.333C213.334 178.504 212.21 175.791 210.209 173.791C208.209 171.79 205.496 170.667 202.667 170.667ZM188.526 74.6667L175.5 120.26C174.857 122.486 173.509 124.444 171.659 125.839C169.809 127.235 167.557 127.993 165.24 128H93.3803L90.661 118.483L78.1486 74.6667H188.526ZM176 202.667C172.836 202.667 169.742 203.605 167.111 205.363C164.48 207.121 162.429 209.62 161.218 212.544C160.007 215.467 159.69 218.684 160.308 221.788C160.925 224.892 162.449 227.743 164.686 229.98C166.924 232.218 169.775 233.742 172.879 234.359C175.982 234.977 179.199 234.66 182.123 233.449C185.047 232.238 187.546 230.187 189.304 227.556C191.062 224.925 192 221.831 192 218.667C192 214.423 190.314 210.354 187.314 207.353C184.313 204.352 180.244 202.667 176 202.667Z" fill="#D9D9D9"/>
</svg>
