<svg width="32" height="34" viewBox="0 0 32 34" fill="none" xmlns="http://www.w3.org/2000/svg">
<path d="M11.3334 26.8246C10.9378 26.8246 10.5511 26.9481 10.2222 27.1794C9.89331 27.4107 9.63697 27.7395 9.48559 28.1242C9.33422 28.5089 9.29461 28.9322 9.37178 29.3406C9.44895 29.7489 9.63943 30.1241 9.91914 30.4185C10.1988 30.7129 10.5552 30.9134 10.9432 30.9947C11.3311 31.0759 11.7333 31.0342 12.0987 30.8749C12.4642 30.7155 12.7765 30.4457 12.9963 30.0995C13.2161 29.7533 13.3334 29.3462 13.3334 28.9298C13.3334 28.3715 13.1226 27.836 12.7476 27.4412C12.3725 27.0464 11.8638 26.8246 11.3334 26.8246ZM25.3334 22.6141H9.33335C8.97973 22.6141 8.64059 22.4662 8.39054 22.203C8.1405 21.9398 8.00002 21.5828 8.00002 21.2105C8.00002 20.8383 8.1405 20.4813 8.39054 20.2181C8.64059 19.9549 8.97973 19.807 9.33335 19.807H20.655C21.5235 19.8041 22.3678 19.5049 23.0612 18.9544C23.7547 18.4038 24.26 17.6316 24.5014 16.7533L26.6153 8.96479C26.672 8.75591 26.6818 8.53602 26.6441 8.32244C26.6064 8.10886 26.5221 7.90741 26.3978 7.73396C26.2735 7.5605 26.1127 7.41978 25.928 7.32287C25.7433 7.22595 25.5397 7.17549 25.3334 7.17546H8.98545C8.70943 6.35771 8.20061 5.64943 7.52832 5.14712C6.85603 4.64481 6.05296 4.3729 5.22854 4.36844H4.00002C3.6464 4.36844 3.30726 4.51631 3.05721 4.77952C2.80716 5.04273 2.66669 5.39971 2.66669 5.77195C2.66669 6.14418 2.80716 6.50117 3.05721 6.76438C3.30726 7.02759 3.6464 7.17546 4.00002 7.17546H5.22854C5.51798 7.17652 5.79931 7.27625 6.0304 7.45971C6.26149 7.64317 6.42991 7.90049 6.51043 8.19314L6.71779 8.95769L6.71811 8.96479L8.90562 17.024C7.8877 17.1393 6.95052 17.661 6.28704 18.4817C5.62356 19.3025 5.28431 20.3598 5.33912 21.4359C5.39394 22.512 5.83866 23.5251 6.5817 24.2664C7.32475 25.0078 8.30956 25.421 9.33335 25.4211H25.3334C25.687 25.4211 26.0261 25.2732 26.2762 25.01C26.5262 24.7468 26.6667 24.3898 26.6667 24.0176C26.6667 23.6453 26.5262 23.2883 26.2762 23.0251C26.0261 22.7619 25.687 22.6141 25.3334 22.6141ZM23.5658 9.98247L21.9375 15.9816C21.8571 16.2745 21.6886 16.5321 21.4574 16.7157C21.2261 16.8993 20.9446 16.9991 20.655 17H11.6725L11.3326 15.7478L9.76858 9.98247H23.5658ZM22 26.8246C21.6045 26.8246 21.2178 26.9481 20.8889 27.1794C20.56 27.4107 20.3036 27.7395 20.1523 28.1242C20.0009 28.5089 19.9613 28.9322 20.0385 29.3406C20.1156 29.7489 20.3061 30.1241 20.5858 30.4185C20.8655 30.7129 21.2219 30.9134 21.6098 30.9947C21.9978 31.0759 22.3999 31.0342 22.7654 30.8749C23.1308 30.7155 23.4432 30.4457 23.663 30.0995C23.8827 29.7533 24 29.3462 24 28.9298C24 28.3715 23.7893 27.836 23.4142 27.4412C23.0392 27.0464 22.5305 26.8246 22 26.8246Z" fill="black"/>
</svg>
